<?xml version="1.0" standalone="no"?><!DOCTYPE svg PUBLIC "-//W3C//DTD SVG 1.1//EN" "http://www.w3.org/Graphics/SVG/1.1/DTD/svg11.dtd"><svg t="1566893712720" class="icon" viewBox="0 0 1024 1024" version="1.1" xmlns="http://www.w3.org/2000/svg" p-id="3508" xmlns:xlink="http://www.w3.org/1999/xlink" width="200" height="200"><defs><style type="text/css"></style></defs><path d="M745.4 915.22H199.33V207.64H745.4v707.58z m-516.09-29.98h486.11V237.62H229.31v647.62z" fill="#333333" p-id="3509"></path><path d="M740.41 911.4l-20-22.34 83.7-74.98V158.16H308.74l-84.42 75.64-20-22.34 92.95-83.29h536.82v699.29z" fill="#333333" p-id="3510"></path><path d="M635.52 435.16H309.23V319.1h326.29v116.06z m-296.31-29.98h266.33v-56.1H339.21v56.1zM310.34 506.72h326.12v29.98H310.34zM310.34 595.55h326.12v29.98H310.34zM310.34 684.39h326.12v29.98H310.34zM310.34 773.24h326.12v29.98H310.34z" fill="#333333" p-id="3511"></path></svg>