<?xml version="1.0" standalone="no"?><!DOCTYPE svg PUBLIC "-//W3C//DTD SVG 1.1//EN" "http://www.w3.org/Graphics/SVG/1.1/DTD/svg11.dtd"><svg t="1566907922818" class="icon" viewBox="0 0 1024 1024" version="1.1" xmlns="http://www.w3.org/2000/svg" p-id="12197" xmlns:xlink="http://www.w3.org/1999/xlink" width="200" height="200"><defs><style type="text/css"></style></defs><path d="M617.124 221.773h216.33c46.153 77.632 34.733 47.996 34.733 102.145l1.222 300.283c0 54.147-2.021 76.737-43.955 104.179H486.277l-57.332 10.007-145.402 120.719 13.382-114.904 6.127-12.256c-54.148 0-74.232-47.471-74.232-101.619V319.824c0-54.148 43.879-98.051 98.051-98.051h290.253z" fill="#31D3FF" p-id="12198"></path><path d="M162.607 468.936c-13.537 0-24.513-10.964-24.513-24.514v-59.223c0-13.548 10.976-24.513 24.513-24.513s24.513 10.964 24.513 24.513v59.223c0 13.55-10.976 24.514-24.513 24.514z" fill="#213847" p-id="12199"></path><path d="M283.543 883.619c-3.28 0-6.583-0.646-9.707-2.011a24.507 24.507 0 0 1-14.806-22.693l0.802-106.022c-67.207-0.456-121.738-55.25-121.738-122.565v-120.53c0-13.549 10.976-24.512 24.513-24.512s24.513 10.963 24.513 24.512v120.529c0 40.552 32.987 73.539 73.539 73.539h23.867a24.506 24.506 0 0 1 17.403 7.254 24.5 24.5 0 0 1 7.11 17.45l-0.55 72.725 94.652-90.631a24.542 24.542 0 0 1 16.949-6.798h347.176c40.553 0 73.539-32.987 73.539-73.539V319.824c0-40.551-32.986-73.539-73.539-73.539H260.658c-40.551 0-73.539 32.987-73.539 73.539 0 13.549-10.976 24.513-24.513 24.513s-24.513-10.963-24.513-24.513c0-67.578 54.986-122.564 122.564-122.564h506.605c67.578 0 122.565 54.986 122.565 122.564v310.503c0 67.579-54.987 122.565-122.565 122.565H429.926L300.492 876.821a24.52 24.52 0 0 1-16.949 6.798z" fill="#213847" p-id="12200"></path><path d="M755.009 447.703h-484.32c-13.537 0-24.513-10.964-24.513-24.513 0-13.549 10.976-24.513 24.513-24.513h484.32c13.537 0 24.512 10.963 24.512 24.513 0 13.549-10.975 24.513-24.512 24.513zM640.607 562.894H270.665c-13.538 0-24.513-10.964-24.513-24.512 0-13.55 10.976-24.514 24.513-24.514h369.942c13.537 0 24.512 10.964 24.512 24.514 0 13.548-10.974 24.512-24.512 24.512z" fill="#213847" p-id="12201"></path></svg>