<?xml version="1.0" standalone="no"?><!DOCTYPE svg PUBLIC "-//W3C//DTD SVG 1.1//EN" "http://www.w3.org/Graphics/SVG/1.1/DTD/svg11.dtd"><svg t="1566902537825" class="icon" viewBox="0 0 1024 1024" version="1.1" xmlns="http://www.w3.org/2000/svg" p-id="7743" xmlns:xlink="http://www.w3.org/1999/xlink" width="200" height="200"><defs><style type="text/css"></style></defs><path d="M512 209.403241c-201.731514 0-374.009206 125.476783-443.808922 302.596759 69.798692 177.119977 242.077408 302.596759 443.808922 302.596759 201.933105 0 374.010229-125.476783 443.808922-302.596759C886.009206 334.880023 713.933105 209.403241 512 209.403241zM512 713.731514c-111.355157 0-201.731514-90.375334-201.731514-201.731514s90.375334-201.731514 201.731514-201.731514 201.731514 90.375334 201.731514 201.731514S623.355157 713.731514 512 713.731514zM512 390.961296c-66.772776 0-121.038704 54.265928-121.038704 121.038704s54.265928 121.038704 121.038704 121.038704 121.038704-54.265928 121.038704-121.038704S578.772776 390.961296 512 390.961296z" p-id="7744"></path></svg>