<?xml version="1.0" standalone="no"?><!DOCTYPE svg PUBLIC "-//W3C//DTD SVG 1.1//EN" "http://www.w3.org/Graphics/SVG/1.1/DTD/svg11.dtd"><svg t="1566910456612" class="icon" viewBox="0 0 1024 1024" version="1.1" xmlns="http://www.w3.org/2000/svg" p-id="19573" xmlns:xlink="http://www.w3.org/1999/xlink" width="200" height="200"><defs><style type="text/css"></style></defs><path d="M321.53 929m-41.47 0l0 0q-41.47 0-41.47-41.47l0-747.06q0-41.47 41.47-41.47l0 0q41.47 0 41.47 41.47l0 747.06q0 41.47-41.47 41.47Z" fill="#2c2c2c" p-id="19574"></path><path d="M787.26 170L411.44 514.25l375.82 344.21a39.32 39.32 0 0 1 13.11 29c0 36.51-48.2 54.79-76.38 29L348.17 572.2c-34.95-32-34.95-83.9 0-115.9L724 112.08c28.18-25.81 76.38-7.53 76.38 29A39.33 39.33 0 0 1 787.26 170z" fill="#2c2c2c" p-id="19575"></path></svg>